Walking07_kinetics.mot
version=1
nRows=36
nColumns=19
inDegrees=yes
endheader
time	1_ground_force_vx	1_ground_force_vy	1_ground_force_vz	1_ground_force_px	1_ground_force_py	1_ground_force_pz	2_ground_force_vx	2_ground_force_vy	2_ground_force_vz	2_ground_force_px	2_ground_force_py	2_ground_force_pz	1_ground_torque_x	1_ground_torque_y	1_ground_torque_z	2_ground_torque_x	2_ground_torque_y	2_ground_torque_z
  0.24500000	-20.78232284	471.01106359	-26.47076453	 -0.27925535	 -0.00047275	  0.16550818	  0.00000000	  0.00000000	  0.00000000	  0.30181907	  0.00246885	 -0.10097818	  0.00069971	  0.54056356	 -0.00034412	  0.00000000	  0.00000000	  0.00000000
  0.24600000	-20.46207683	469.48087204	-26.33342463	 -0.27876023	 -0.00047334	  0.16559679	  0.00000000	  0.00000000	  0.00000000	  0.30181907	  0.00246885	 -0.10097818	  0.00069758	  0.53891867	 -0.00034308	  0.00000000	  0.00000000	  0.00000000
  0.24700000	-20.12932869	468.09290945	-26.19457064	 -0.27826100	 -0.00047392	  0.16569533	  0.00000000	  0.00000000	  0.00000000	  0.30181907	  0.00246885	 -0.10097818	  0.00069788	  0.53914852	 -0.00034322	  0.00000000	  0.00000000	  0.00000000
  0.24800000	-19.77839713	466.86259493	-26.06151732	 -0.27775900	 -0.00047450	  0.16580402	  0.00000000	  0.00000000	  0.00000000	  0.30181907	  0.00246885	 -0.10097818	  0.00070073	  0.54135357	 -0.00034463	  0.00000000	  0.00000000	  0.00000000
  0.24900000	-19.40346815	465.79665780	-25.94003109	 -0.27725730	 -0.00047508	  0.16592137	  0.00000000	  0.00000000	  0.00000000	  0.30181907	  0.00246885	 -0.10097818	  0.00070613	  0.54551818	 -0.00034728	  0.00000000	  0.00000000	  0.00000000
  0.25000000	-19.00001475	464.89337122	-25.83328734	 -0.27676000	 -0.00047564	  0.16604434	  0.00000000	  0.00000000	  0.00000000	  0.30181907	  0.00246885	 -0.10097818	  0.00071393	  0.55154842	 -0.00035112	  0.00000000	  0.00000000	  0.00000000
  0.25100000	-18.56569700	464.14574906	-25.74245026	 -0.27627098	 -0.00047620	  0.16616928	  0.00000000	  0.00000000	  0.00000000	  0.30181907	  0.00246885	 -0.10097818	  0.00072410	  0.55940790	 -0.00035612	  0.00000000	  0.00000000	  0.00000000
  0.25200000	-18.10071699	463.54431250	-25.66770749	 -0.27579292	 -0.00047674	  0.16629272	  0.00000000	  0.00000000	  0.00000000	  0.30181907	  0.00246885	 -0.10097818	  0.00073681	  0.56922040	 -0.00036237	  0.00000000	  0.00000000	  0.00000000
  0.25300000	-17.60765972	463.07696013	-25.60881315	 -0.27532728	 -0.00047726	  0.16641166	  0.00000000	  0.00000000	  0.00000000	  0.30181907	  0.00246885	 -0.10097818	  0.00075237	  0.58124061	 -0.00037002	  0.00000000	  0.00000000	  0.00000000
  0.25400000	-17.09115646	462.72656080	-25.56491578	 -0.27487477	 -0.00047778	  0.16652333	  0.00000000	  0.00000000	  0.00000000	  0.30181907	  0.00246885	 -0.10097818	  0.00077110	  0.59571438	 -0.00037923	  0.00000000	  0.00000000	  0.00000000
  0.25500000	-16.55776102	462.46780409	-25.53366273	 -0.27443504	 -0.00047828	  0.16662488	  0.00000000	  0.00000000	  0.00000000	  0.30181907	  0.00246885	 -0.10097818	  0.00079306	  0.61268258	 -0.00039004	  0.00000000	  0.00000000	  0.00000000
  0.25600000	-16.01593543	462.26492331	-25.50998044	 -0.27400598	 -0.00047878	  0.16671318	  0.00000000	  0.00000000	  0.00000000	  0.30181907	  0.00246885	 -0.10097818	  0.00081782	  0.63181021	 -0.00040221	  0.00000000	  0.00000000	  0.00000000
  0.25700000	-15.47547729	462.07348820	-25.48573276	 -0.27358375	 -0.00047928	  0.16678497	  0.00000000	  0.00000000	  0.00000000	  0.30181907	  0.00246885	 -0.10097818	  0.00084452	  0.65243424	 -0.00041534	  0.00000000	  0.00000000	  0.00000000
  0.25800000	-14.94601468	461.84792360	-25.45104530	 -0.27316461	 -0.00047979	  0.16683749	  0.00000000	  0.00000000	  0.00000000	  0.30181907	  0.00246885	 -0.10097818	  0.00087233	  0.67392086	 -0.00042902	  0.00000000	  0.00000000	  0.00000000
  0.25900000	-14.43528660	461.55055896	-25.39650587	 -0.27274689	 -0.00048031	  0.16686909	  0.00000000	  0.00000000	  0.00000000	  0.30181907	  0.00246885	 -0.10097818	  0.00090097	  0.69604862	 -0.00044311	  0.00000000	  0.00000000	  0.00000000
  0.26000000	-13.94823375	461.15641850	-25.31503021	 -0.27233105	 -0.00048084	  0.16687913	  0.00000000	  0.00000000	  0.00000000	  0.30181907	  0.00246885	 -0.10097818	  0.00093072	  0.71902975	 -0.00045774	  0.00000000	  0.00000000	  0.00000000
  0.26100000	-13.48704763	460.65294487	-25.20293961	 -0.27191796	 -0.00048139	  0.16686740	  0.00000000	  0.00000000	  0.00000000	  0.30181907	  0.00246885	 -0.10097818	  0.00096197	  0.74317005	 -0.00047310	  0.00000000	  0.00000000	  0.00000000
  0.26200000	-13.05165389	460.03775168	-25.06003078	 -0.27150761	 -0.00048194	  0.16683380	  0.00000000	  0.00000000	  0.00000000	  0.30181907	  0.00246885	 -0.10097818	  0.00099483	  0.76855556	 -0.00048927	  0.00000000	  0.00000000	  0.00000000
  0.26300000	-12.64016954	459.31705280	-24.88866207	 -0.27109971	 -0.00048250	  0.16677904	  0.00000000	  0.00000000	  0.00000000	  0.30181907	  0.00246885	 -0.10097818	  0.00102911	  0.79504015	 -0.00050613	  0.00000000	  0.00000000	  0.00000000
  0.26400000	-12.24901513	458.50619135	-24.69285692	 -0.27069524	 -0.00048307	  0.16670556	  0.00000000	  0.00000000	  0.00000000	  0.30181907	  0.00246885	 -0.10097818	  0.00106453	  0.82240764	 -0.00052355	  0.00000000	  0.00000000	  0.00000000
  0.26500000	-11.87242301	457.63325591	-24.47867138	 -0.27029706	 -0.00048364	  0.16661791	  0.00000000	  0.00000000	  0.00000000	  0.30181907	  0.00246885	 -0.10097818	  0.00110086	  0.85047027	 -0.00054141	  0.00000000	  0.00000000	  0.00000000
  0.26600000	-11.50168742	456.74378700	-24.25558278	 -0.26990921	 -0.00048421	  0.16652210	  0.00000000	  0.00000000	  0.00000000	  0.30181907	  0.00246885	 -0.10097818	  0.00113784	  0.87903935	 -0.00055960	  0.00000000	  0.00000000	  0.00000000
  0.26700000	-11.12542765	455.89969579	-24.03695228	 -0.26953545	 -0.00048475	  0.16642461	  0.00000000	  0.00000000	  0.00000000	  0.30181907	  0.00246885	 -0.10097818	  0.00117509	  0.90781383	 -0.00057792	  0.00000000	  0.00000000	  0.00000000
  0.26800000	-10.73165985	455.16801740	-23.83824167	 -0.26917781	 -0.00048527	  0.16633121	  0.00000000	  0.00000000	  0.00000000	  0.30181907	  0.00246885	 -0.10097818	  0.00121188	  0.93623847	 -0.00059601	  0.00000000	  0.00000000	  0.00000000
  0.26900000	-10.31067411	454.60467334	-23.67400939	 -0.26883579	 -0.00048577	  0.16624594	  0.00000000	  0.00000000	  0.00000000	  0.30181907	  0.00246885	 -0.10097818	  0.00124705	  0.96340765	 -0.00061331	  0.00000000	  0.00000000	  0.00000000
  0.27000000	 -9.85722288	454.24099838	-23.55534796	 -0.26850744	 -0.00048624	  0.16617083	  0.00000000	  0.00000000	  0.00000000	  0.30181907	  0.00246885	 -0.10097818	  0.00127901	  0.98809847	 -0.00062903	  0.00000000	  0.00000000	  0.00000000
  0.27100000	 -9.37142046	454.07642023	-23.48845639	 -0.26819163	 -0.00048669	  0.16610613	  0.00000000	  0.00000000	  0.00000000	  0.30181907	  0.00246885	 -0.10097818	  0.00130597	  1.00892608	 -0.00064229	  0.00000000	  0.00000000	  0.00000000
  0.27200000	 -8.85797520	454.08011997	-23.47487117	 -0.26788974	 -0.00048712	  0.16605083	  0.00000000	  0.00000000	  0.00000000	  0.30181907	  0.00246885	 -0.10097818	  0.00132614	  1.02451031	 -0.00065221	  0.00000000	  0.00000000	  0.00000000
  0.27300000	 -8.32367825	454.20281094	-23.51352902	 -0.26760513	 -0.00048752	  0.16600332	  0.00000000	  0.00000000	  0.00000000	  0.30181907	  0.00246885	 -0.10097818	  0.00133787	  1.03357105	 -0.00065797	  0.00000000	  0.00000000	  0.00000000
  0.27400000	 -7.77437184	454.39241945	-23.60335901	 -0.26734153	 -0.00048789	  0.16596192	  0.00000000	  0.00000000	  0.00000000	  0.30181907	  0.00246885	 -0.10097818	  0.00133968	  1.03496978	 -0.00065887	  0.00000000	  0.00000000	  0.00000000
  0.27500000	 -7.21294055	454.60568632	-23.74473916	 -0.26710199	 -0.00048822	  0.16592537	  0.00000000	  0.00000000	  0.00000000	  0.30181907	  0.00246885	 -0.10097818	  0.00133032	  1.02774139	 -0.00065426	  0.00000000	  0.00000000	  0.00000000
  0.27600000	 -6.63873916	454.81348683	-23.93947714	 -0.26688858	 -0.00048852	  0.16589316	  0.00000000	  0.00000000	  0.00000000	  0.30181907	  0.00246885	 -0.10097818	  0.00130882	  1.01112771	 -0.00064369	  0.00000000	  0.00000000	  0.00000000
  0.27700000	 -6.04819977	455.00085120	-24.18994641	 -0.26670249	 -0.00048878	  0.16586516	  0.00000000	  0.00000000	  0.00000000	  0.30181907	  0.00246885	 -0.10097818	  0.00127447	  0.98459462	 -0.00062680	  0.00000000	  0.00000000	  0.00000000
  0.27800000	 -5.43636286	455.16287103	-24.49782809	 -0.26654379	 -0.00048900	  0.16584070	  0.00000000	  0.00000000	  0.00000000	  0.30181907	  0.00246885	 -0.10097818	  0.00122689	  0.94783802	 -0.00060340	  0.00000000	  0.00000000	  0.00000000
  0.27900000	 -4.79891824	455.29906483	-24.86236191	 -0.26641104	 -0.00048918	  0.16581763	  0.00000000	  0.00000000	  0.00000000	  0.30181907	  0.00246885	 -0.10097818	  0.00116610	  0.90087016	 -0.00057350	  0.00000000	  0.00000000	  0.00000000
  0.28000000	 -4.13433151	455.40899380	-25.27784160	 -0.26630064	 -0.00048934	  0.16579270	  0.00000000	  0.00000000	  0.00000000	  0.30181907	  0.00246885	 -0.10097818	  0.00109287	  0.84430069	 -0.00053748	  0.00000000	  0.00000000	  0.00000000
